<svg width="28" height="28" viewBox="0 0 28 28" fill="none" xmlns="http://www.w3.org/2000/svg">
<mask id="mask0_59_603" style="mask-type:alpha" maskUnits="userSpaceOnUse" x="0" y="0" width="28" height="28">
<rect width="28" height="28" fill="#D9D9D9"/>
</mask>
<g mask="url(#mask0_59_603)">
<path d="M14 17.4999C14.3306 17.4999 14.6077 17.3881 14.8313 17.1645C15.0549 16.9409 15.1667 16.6638 15.1667 16.3333C15.1667 16.0027 15.0549 15.7256 14.8313 15.502C14.6077 15.2784 14.3306 15.1666 14 15.1666C13.6695 15.1666 13.3924 15.2784 13.1688 15.502C12.9452 15.7256 12.8334 16.0027 12.8334 16.3333C12.8334 16.6638 12.9452 16.9409 13.1688 17.1645C13.3924 17.3881 13.6695 17.4999 14 17.4999ZM12.8334 12.8333H15.1667V5.83325H12.8334V12.8333ZM2.33337 25.6666V4.66659C2.33337 4.02492 2.56185 3.47561 3.01879 3.01867C3.47574 2.56172 4.02504 2.33325 4.66671 2.33325H23.3334C23.975 2.33325 24.5243 2.56172 24.9813 3.01867C25.4382 3.47561 25.6667 4.02492 25.6667 4.66659V18.6666C25.6667 19.3083 25.4382 19.8576 24.9813 20.3145C24.5243 20.7714 23.975 20.9999 23.3334 20.9999H7.00004L2.33337 25.6666ZM6.00837 18.6666H23.3334V4.66659H4.66671V19.9791L6.00837 18.6666Z" fill="#FFB133"/>
</g>
</svg>
