<svg width="28" height="28" viewBox="0 0 28 28" fill="none" xmlns="http://www.w3.org/2000/svg">
<mask id="mask0_42_57" style="mask-type:alpha" maskUnits="userSpaceOnUse" x="0" y="0" width="28" height="28">
<rect width="28" height="28" fill="#D9D9D9"/>
</mask>
<g mask="url(#mask0_42_57)">
<path d="M4.66675 24.5V13.5625L2.56675 15.1667L1.16675 13.3L14.0001 3.5L26.8334 13.3L25.4334 15.1375L23.3334 13.5625V24.5H4.66675ZM7.00008 22.1667H21.0001V11.7833L14.0001 6.44583L7.00008 11.7833V22.1667ZM9.33342 17.5C9.00286 17.5 8.72578 17.3882 8.50217 17.1646C8.27855 16.941 8.16675 16.6639 8.16675 16.3333C8.16675 16.0028 8.27855 15.7257 8.50217 15.5021C8.72578 15.2785 9.00286 15.1667 9.33342 15.1667C9.66397 15.1667 9.94105 15.2785 10.1647 15.5021C10.3883 15.7257 10.5001 16.0028 10.5001 16.3333C10.5001 16.6639 10.3883 16.941 10.1647 17.1646C9.94105 17.3882 9.66397 17.5 9.33342 17.5ZM14.0001 17.5C13.6695 17.5 13.3924 17.3882 13.1688 17.1646C12.9452 16.941 12.8334 16.6639 12.8334 16.3333C12.8334 16.0028 12.9452 15.7257 13.1688 15.5021C13.3924 15.2785 13.6695 15.1667 14.0001 15.1667C14.3306 15.1667 14.6077 15.2785 14.8313 15.5021C15.0549 15.7257 15.1667 16.0028 15.1667 16.3333C15.1667 16.6639 15.0549 16.941 14.8313 17.1646C14.6077 17.3882 14.3306 17.5 14.0001 17.5ZM18.6667 17.5C18.3362 17.5 18.0591 17.3882 17.8355 17.1646C17.6119 16.941 17.5001 16.6639 17.5001 16.3333C17.5001 16.0028 17.6119 15.7257 17.8355 15.5021C18.0591 15.2785 18.3362 15.1667 18.6667 15.1667C18.9973 15.1667 19.2744 15.2785 19.498 15.5021C19.7216 15.7257 19.8334 16.0028 19.8334 16.3333C19.8334 16.6639 19.7216 16.941 19.498 17.1646C19.2744 17.3882 18.9973 17.5 18.6667 17.5Z" fill="#035A8F"/>
</g>
</svg>
