<svg width="42" height="42" viewBox="0 0 42 42" fill="none" xmlns="http://www.w3.org/2000/svg">
<mask id="mask0_76_6" style="mask-type:alpha" maskUnits="userSpaceOnUse" x="0" y="0" width="42" height="42">
<rect width="42" height="42" fill="#D9D9D9"/>
</mask>
<g mask="url(#mask0_76_6)">
<path d="M8.75 36.7502C7.7875 36.7502 6.96354 36.4075 6.27813 35.7221C5.59271 35.0367 5.25 34.2127 5.25 33.2502V8.75024C5.25 7.78774 5.59271 6.96379 6.27813 6.27837C6.96354 5.59295 7.7875 5.25024 8.75 5.25024H16.1C16.4792 4.20024 17.1135 3.35441 18.0031 2.71274C18.8927 2.07108 19.8917 1.75024 21 1.75024C22.1083 1.75024 23.1073 2.07108 23.9969 2.71274C24.8865 3.35441 25.5208 4.20024 25.9 5.25024H33.25C34.2125 5.25024 35.0365 5.59295 35.7219 6.27837C36.4073 6.96379 36.75 7.78774 36.75 8.75024V33.2502C36.75 34.2127 36.4073 35.0367 35.7219 35.7221C35.0365 36.4075 34.2125 36.7502 33.25 36.7502H8.75ZM8.75 33.2502H33.25V8.75024H8.75V33.2502ZM12.25 29.7502H24.5V26.2502H12.25V29.7502ZM12.25 22.7502H29.75V19.2502H12.25V22.7502ZM12.25 15.7502H29.75V12.2502H12.25V15.7502ZM21.9406 7.06587C22.1885 6.81795 22.3125 6.50441 22.3125 6.12524C22.3125 5.74608 22.1885 5.43254 21.9406 5.18462C21.6927 4.9367 21.3792 4.81274 21 4.81274C20.6208 4.81274 20.3073 4.9367 20.0594 5.18462C19.8115 5.43254 19.6875 5.74608 19.6875 6.12524C19.6875 6.50441 19.8115 6.81795 20.0594 7.06587C20.3073 7.31379 20.6208 7.43774 21 7.43774C21.3792 7.43774 21.6927 7.31379 21.9406 7.06587Z" fill="#035A8F"/>
</g>
</svg>
