<svg width="23" height="23" viewBox="0 0 23 23" fill="none" xmlns="http://www.w3.org/2000/svg">
<mask id="mask0_258_98" style="mask-type:alpha" maskUnits="userSpaceOnUse" x="0" y="0" width="23" height="23">
<rect width="22.555" height="22.555" fill="#D9D9D9"/>
</mask>
<g mask="url(#mask0_258_98)">
<path d="M4.74589 21.0279L3.43018 19.6887L6.20257 16.9163H4.08803V15.0367H9.39786V20.3466H7.51828V18.2555L4.74589 21.0279ZM11.2775 20.6755V18.7959H16.9162V8.45819H12.2172V3.75923H5.63869V13.1572H3.7591V3.75923C3.7591 3.24234 3.94315 2.79985 4.31123 2.43177C4.67932 2.06368 5.1218 1.87964 5.63869 1.87964H13.157L18.7958 7.5184V18.7959C18.7958 19.3128 18.6118 19.7553 18.2437 20.1234C17.8756 20.4915 17.4331 20.6755 16.9162 20.6755H11.2775Z" fill="#1C1B1F"/>
</g>
</svg>
